 <svg xmlns="http://www.w3.org/2000/svg" width="40" height="40" viewBox="0 0 32 40" fill="none">
            <path
                d="M15.6757 0C11.5197 0.00491496 7.53542 1.6621 4.59672 4.60804C1.65803 7.55397 0.00491272 11.5481 9.83888e-06 15.7143C-0.00381123 19.1187 1.10544 22.4306 3.15794 25.1429C3.15794 25.1429 3.58546 25.7071 3.65529 25.7886L15.6757 40L27.7018 25.7814C27.7645 25.7057 28.1934 25.1429 28.1934 25.1429L28.1948 25.1386C30.2459 22.4273 31.3546 19.1171 31.3513 15.7143C31.3464 11.5481 29.6933 7.55397 26.7546 4.60804C23.8159 1.6621 19.8316 0.00491496 15.6757 0ZM15.6757 21.4286C14.5483 21.4286 13.4462 21.0934 12.5088 20.4655C11.5714 19.8376 10.8408 18.9452 10.4093 17.901C9.9779 16.8569 9.86502 15.7079 10.085 14.5995C10.3049 13.491 10.8478 12.4728 11.645 11.6737C12.4422 10.8745 13.4579 10.3303 14.5636 10.1098C15.6694 9.88931 16.8155 10.0025 17.8571 10.435C18.8986 10.8675 19.7889 11.5999 20.4153 12.5396C21.0416 13.4793 21.3759 14.5841 21.3759 15.7143C21.374 17.2292 20.7729 18.6816 19.7043 19.7528C18.6357 20.824 17.1869 21.4267 15.6757 21.4286Z"
                fill="#F08383"
            />
            <ellipse cx="15.6757" cy="15.6757" rx="8.10811" ry="8.10811" fill="#F08383" />
            <path
                d="M16.3003 12.7027C16.3003 11.6275 16.7322 10.5963 17.5009 9.83606C18.2697 9.07577 19.3123 8.64865 20.3994 8.64865H20.6727C20.8177 8.64865 20.9567 8.7056 21.0592 8.80697C21.1617 8.90834 21.2193 9.04583 21.2193 9.18919V15.6757C21.2193 15.7611 21.2411 16.0368 21.2837 16.4681C21.3242 16.8843 21.3794 17.4103 21.4384 17.9708L21.4455 18.0373C21.5931 19.4416 21.7658 21.0892 21.7658 21.6216C21.7658 22.1951 21.5355 22.745 21.1255 23.1505C20.7155 23.556 20.1594 23.7838 19.5796 23.7838C18.9998 23.7838 18.4437 23.556 18.0337 23.1505C17.6238 22.745 17.3934 22.1951 17.3934 21.6216C17.3934 21.1687 17.5175 19.8016 17.6437 18.52C17.7306 17.6362 17.8208 16.7687 17.8793 16.2162H17.6667C17.3043 16.2162 16.9568 16.0738 16.7005 15.8204C16.4443 15.567 16.3003 15.2233 16.3003 14.8649V12.7027ZM14.6465 9.06649C14.6172 8.94213 14.5443 8.83206 14.4407 8.75578C14.3372 8.67949 14.2097 8.64193 14.0808 8.64973C13.7911 8.66595 13.5621 8.90216 13.5621 9.19243V12.4357C13.5643 12.5783 13.5091 12.716 13.4087 12.8184C13.3082 12.9207 13.1707 12.9795 13.0265 12.9816C12.8823 12.9838 12.7431 12.9292 12.6396 12.8298C12.5361 12.7305 12.4767 12.5945 12.4745 12.4519V9.18919C12.4745 9.04583 12.4169 8.90834 12.3144 8.80697C12.2119 8.7056 12.0729 8.64865 11.928 8.64865C11.783 8.64865 11.644 8.7056 11.5415 8.80697C11.439 8.90834 11.3814 9.04583 11.3814 9.18919V12.4676C11.3725 12.6068 11.3092 12.7372 11.2048 12.8312C11.1005 12.9252 10.9633 12.9753 10.8223 12.9711C10.6812 12.9669 10.5474 12.9086 10.449 12.8086C10.3506 12.7086 10.2953 12.5747 10.2949 12.4351V9.19298C10.2945 9.05986 10.2448 8.93149 10.1552 8.83215C10.0656 8.73281 9.94232 8.66938 9.80864 8.65387C9.67496 8.63836 9.54016 8.67184 9.42975 8.74797C9.31933 8.8241 9.24096 8.93761 9.20944 9.06703C9.19742 9.11676 8.64868 11.427 8.64868 12.973C8.64826 13.4616 8.75965 13.9439 8.97451 14.3839C9.18937 14.8239 9.50213 15.2101 9.88934 15.5135C10.1604 15.7265 10.2883 15.9584 10.2883 16.1524C10.2882 16.173 10.287 16.1936 10.2845 16.2141C10.2517 16.4865 10.1167 17.6162 9.98991 18.7832C9.8653 19.9308 9.74178 21.1676 9.74178 21.6216C9.74178 22.1951 9.97211 22.745 10.3821 23.1505C10.7921 23.556 11.3481 23.7838 11.928 23.7838C12.5078 23.7838 13.0638 23.556 13.4738 23.1505C13.8838 22.745 14.1141 22.1951 14.1141 21.6216C14.1141 21.1681 13.9906 19.9308 13.866 18.7832C13.7392 17.6162 13.6037 16.4859 13.5709 16.2141C13.5686 16.1936 13.5675 16.173 13.5676 16.1524C13.5676 15.9584 13.6955 15.7265 13.9666 15.5135C14.3538 15.2101 14.6666 14.8239 14.8814 14.3839C15.0963 13.9439 15.2077 13.4616 15.2072 12.973C15.2072 11.4259 14.6569 9.11135 14.6465 9.06649ZM14.0562 8.65135L14.0671 8.65081H14.0628L14.0584 8.65135H14.0562Z"
                fill="white"
            />
        </svg>